<svg id="e8gjltddrb11" xmlns="http://www.w3.org/2000/svg" xmlns:xlink="http://www.w3.org/1999/xlink" viewBox="0 0 117 154" shape-rendering="geometricPrecision" text-rendering="geometricPrecision" width="117" height="154"><style><![CDATA[#e8gjltddrb13 {animation: e8gjltddrb13_c_o 1800ms linear infinite normal forwards}@keyframes e8gjltddrb13_c_o { 0% {opacity: 0} 27.777778% {opacity: 1} 100% {opacity: 1} }#e8gjltddrb14 {animation: e8gjltddrb14_c_o 1800ms linear infinite normal forwards}@keyframes e8gjltddrb14_c_o { 0% {opacity: 0} 27.777778% {opacity: 0} 55.555556% {opacity: 1} 100% {opacity: 1} }#e8gjltddrb15 {animation: e8gjltddrb15_c_o 1800ms linear infinite normal forwards}@keyframes e8gjltddrb15_c_o { 0% {opacity: 0} 55.555556% {opacity: 0} 83.333333% {opacity: 1} 100% {opacity: 1} }]]></style><defs><linearGradient id="e8gjltddrb12-fill" x1="2.003760" y1="31.627300" x2="85.934400" y2="115.602000" spreadMethod="pad" gradientUnits="userSpaceOnUse"><stop id="e8gjltddrb12-fill-0" offset="0%" stop-color="rgb(24,214,156)"/><stop id="e8gjltddrb12-fill-1" offset="100%" stop-color="rgb(165,231,41)"/></linearGradient></defs><path id="e8gjltddrb12" d="M111.956000,36.720400C108.778000,29.408400,104.457000,23.056000,99.038500,17.617700C93.620200,12.179400,87.241700,7.883540,79.925800,4.730230C72.610000,1.554050,64.836900,-0.022605,56.629500,0.000245C48.353400,0.023095,40.740400,1.622600,33.836000,4.798780C26.908800,7.974940,20.941900,12.316500,15.935100,17.777600C10.905500,23.238800,6.996050,29.614000,4.184020,36.880400C1.497550,43.822300,0.104782,51.202100,0.005692,59L0,59L0,59.881400C0,59.892000,0,59.902600,0,59.913300L0,100L0.095062,100L0.160316,131.777000C0.160316,134.793000,0.709000,137.604000,1.806370,140.186000C2.903750,142.768000,4.412640,145.030000,6.355910,146.972000C8.299180,148.892000,10.562500,150.423000,13.145900,151.542000C15.729300,152.662000,18.495600,153.210000,21.444800,153.210000C24.462600,153.210000,27.206100,152.639000,29.675200,151.519000C32.144200,150.400000,34.270400,148.869000,36.053600,146.927000C37.836900,144.984000,39.185700,142.722000,40.168800,140.140000C41.129000,137.558000,41.609100,134.747000,41.609100,131.731000L42.157800,117.336000C46.798800,119.095000,51.714100,119.986000,56.903800,119.963000C65.111300,119.941000,72.861500,118.364000,80.154400,115.211000C87.470300,112.057000,93.825900,107.784000,99.221400,102.346000C104.617000,96.930500,108.915000,90.578200,112.070000,83.289000C115.225000,76.022600,116.802000,68.230700,116.779000,59.959000C116.734000,51.778600,115.133000,44.009600,111.956000,36.720400Z" fill="url(#e8gjltddrb12-fill)" stroke="none" stroke-width="1"/><path id="e8gjltddrb13" d="M25,50.500000C23.779200,50.500000,22.779200,51.603900,22,52.464100C21.821800,52.660900,21.655100,52.844900,21.500000,53L0,74.500000L0,87.500000L25,62.500000L25,50.500000Z" opacity="0" clip-rule="evenodd" fill="rgb(255,255,255)" fill-rule="evenodd" stroke="none" stroke-width="1"/><path id="e8gjltddrb14" d="M50,74L28.500000,52.500000C28.344900,52.344900,28.178200,52.160900,28,51.964100C27.220800,51.103900,26.220800,50,25,50C23.779200,50,22.779200,51.103900,22,51.964100C21.821800,52.160900,21.655100,52.344900,21.500000,52.500000L0,74L0,87L25,62L47.500000,84.500000C47.550500,84.550500,47.603600,84.604100,47.659100,84.660200C48.264900,85.272100,49.157600,86.174000,50,86.359900L50,74Z" opacity="0" clip-rule="evenodd" fill="rgb(255,255,255)" fill-rule="evenodd" stroke="none" stroke-width="1"/><path id="e8gjltddrb15" d="M94,48L94,46L94,39C94,37.895400,93.104600,37,92,37L88.500000,37L87,37L66.500000,37C64.014700,37,62,39.014700,62,41.500000C62,43.985300,64.014700,46,66.500000,46L78.508100,46L50.300000,74.300000L28.500000,52.500000C28.344900,52.344900,28.178200,52.160900,28,51.964100C27.220800,51.103900,26.220800,50,25,50C23.779200,50,22.779200,51.103900,22,51.964100C21.821800,52.160900,21.655100,52.344900,21.500000,52.500000L0,74L0,87L25,62L47.500000,84.500000C47.550500,84.550500,47.603600,84.604100,47.659100,84.660200C48.337400,85.345400,49.375700,86.394200,50.300000,86.394200C51.300000,86.394200,52.500000,85.166700,53,84.500000L85,52.500000L85,65C85,67.485300,87.014700,69.500000,89.500000,69.500000C91.985300,69.500000,94,67.485300,94,65L94,48Z" opacity="0" clip-rule="evenodd" fill="rgb(255,255,255)" fill-rule="evenodd" stroke="none" stroke-width="1"/></svg>