<svg width="140" height="33" viewBox="0 0 140 33" fill="none" xmlns="http://www.w3.org/2000/svg">
<path d="M54.7915 10.7507C54.0083 9.96794 53.0802 9.34465 52.0263 8.88563C50.9676 8.43145 49.8267 8.19952 48.6278 8.19952C47.4338 8.19952 46.288 8.43145 45.2342 8.88563C44.1803 9.33981 43.2473 9.96794 42.4593 10.7459C41.6713 11.5286 41.038 12.4611 40.5836 13.5193C40.1244 14.5823 39.8972 15.7322 39.8972 16.9353V29.9472C39.8972 30.3531 40.0422 30.7058 40.3226 30.986C40.603 31.2663 40.951 31.4112 41.3426 31.4112C41.7583 31.4112 42.0967 31.2663 42.3578 30.9763C42.6092 30.6961 42.7397 30.3482 42.7397 29.9472V23.347C43.431 23.9848 44.2238 24.5018 45.0988 24.8932C46.1817 25.3812 47.3709 25.6276 48.6278 25.6276C49.8267 25.6276 50.9676 25.3957 52.0263 24.9415C53.0802 24.4873 54.0132 23.8592 54.7963 23.0765C55.5795 22.2937 56.2031 21.366 56.6527 20.3224C57.1023 19.2739 57.3343 18.1384 57.3343 16.9401C57.3343 15.7322 57.1071 14.5871 56.6527 13.5241C56.1983 12.4611 55.5746 11.5286 54.7915 10.7507ZM54.4821 16.9353C54.4821 17.7229 54.3274 18.4815 54.0277 19.1869C53.7231 19.8972 53.3074 20.5253 52.7804 21.0568C52.2535 21.5883 51.6299 22.0135 50.9193 22.3227C49.5173 22.9315 47.7528 22.9412 46.3219 22.3227C45.6064 22.0135 44.978 21.5883 44.4559 21.0616C43.9289 20.5301 43.5083 19.902 43.1989 19.1917C42.8944 18.4863 42.7349 17.7277 42.7349 16.9401C42.7349 16.1429 42.8896 15.3747 43.1989 14.6644C43.5083 13.9493 43.9289 13.3212 44.4559 12.7945C44.9828 12.2678 45.6112 11.8475 46.3267 11.5383C47.0373 11.2339 47.8108 11.0744 48.623 11.0744C49.4448 11.0744 50.2183 11.229 50.9241 11.5334C51.6347 11.8427 52.2583 12.263 52.7853 12.7897C53.3122 13.3163 53.7328 13.9445 54.0325 14.6547C54.3322 15.3698 54.4821 16.1381 54.4821 16.9353Z" fill="white"/>
<path d="M75.2065 8.16571C74.8391 8.16571 74.5055 8.301 74.2155 8.56675C73.9206 8.83732 73.7756 9.18521 73.7756 9.59591V17.0271C73.7756 17.8147 73.6306 18.5588 73.3502 19.2352C73.0649 19.9117 72.6685 20.5108 72.1706 21.0036C71.6727 21.5013 71.0829 21.8975 70.4158 22.1826C69.0767 22.7527 67.4379 22.7431 66.1278 22.1826C65.4655 21.8975 64.8757 21.5061 64.3681 21.0133C63.8654 20.5205 63.4641 19.931 63.1741 19.2594C62.884 18.5878 62.739 17.863 62.739 17.0948V9.59591C62.739 9.19004 62.5988 8.84215 62.3184 8.57158C61.7576 8.02559 60.8585 8.04008 60.3122 8.57158C60.0318 8.84215 59.8916 9.18521 59.8916 9.59591V17.0803C59.8916 18.1336 60.0801 19.1483 60.4475 20.0808C60.8149 21.0133 61.3225 21.8589 61.9558 22.5885C62.5891 23.318 63.3529 23.9317 64.2134 24.4197C65.0111 24.869 65.8861 25.1734 66.8046 25.3329V29.8022C66.8046 30.1984 66.9399 30.5367 67.2107 30.8121C67.4814 31.0923 67.8343 31.2324 68.2549 31.2324C68.6416 31.2324 68.9752 31.0923 69.2507 30.8169C69.5263 30.5415 69.6665 30.1984 69.6665 29.8022V25.3377C70.5753 25.1928 71.4455 24.8932 72.248 24.4487C73.1181 23.9703 73.8868 23.3567 74.5346 22.6271C75.1823 21.8975 75.6948 21.052 76.0622 20.1194C76.4296 19.1821 76.6181 18.1771 76.6181 17.1334V9.59591C76.6181 9.19004 76.4876 8.85182 76.2314 8.58124C75.9752 8.301 75.6271 8.16571 75.2065 8.16571Z" fill="white"/>
<path d="M93.393 20.9505C93.1513 20.9505 92.9386 20.9988 92.7597 21.0954C92.605 21.1776 92.46 21.279 92.3101 21.3998C91.7493 21.8927 91.1547 22.2551 90.5311 22.4725C89.9075 22.6899 89.221 22.801 88.4959 22.801C87.6693 22.801 86.8958 22.6561 86.1851 22.3614C85.4793 22.0715 84.8509 21.6656 84.3288 21.1534C83.8018 20.6461 83.3861 20.0373 83.0815 19.3464C82.7818 18.6602 82.6271 17.9065 82.6271 17.1044V11.1807H89.9897C90.3958 11.1807 90.7438 11.0454 91.0194 10.77C91.2998 10.4994 91.44 10.1709 91.44 9.794C91.44 9.3978 91.2949 9.04991 91.0145 8.76484C90.7342 8.47977 90.3861 8.33481 89.9897 8.33481H82.6368V4.66269C82.6368 4.25199 82.4869 3.90411 82.1969 3.6287C81.6264 3.08754 80.7369 3.07305 80.1665 3.64319C79.8861 3.92343 79.7411 4.27132 79.7411 4.66269V17.0851C79.7411 18.293 79.9731 19.4333 80.4324 20.4673C80.8868 21.5013 81.5201 22.4145 82.3081 23.1779C83.0961 23.9413 84.0339 24.5501 85.0926 24.9802C86.1513 25.4102 87.3018 25.6324 88.5056 25.6324C89.6029 25.6324 90.6471 25.4488 91.5995 25.0865C92.5567 24.7241 93.422 24.1781 94.1665 23.4678C94.3308 23.318 94.4614 23.1344 94.5532 22.9267C94.6402 22.7189 94.6886 22.5111 94.6886 22.2985C94.6886 21.9265 94.558 21.6028 94.3018 21.3419C94.0408 21.0858 93.7362 20.9505 93.393 20.9505Z" fill="white"/>
<path d="M111.193 10.6492C110.506 9.89546 109.67 9.29149 108.718 8.85663C107.765 8.42178 106.702 8.19952 105.561 8.19952C104.928 8.19952 104.309 8.28166 103.714 8.4411C103.124 8.60055 102.564 8.83247 102.046 9.12238C101.529 9.41712 101.041 9.76983 100.596 10.1805C100.345 10.4076 100.108 10.654 99.8854 10.915L99.8709 3.59487C99.8709 3.19383 99.7356 2.84595 99.4697 2.56571C99.199 2.28063 98.8557 2.13568 98.4496 2.13568C98.0677 2.13568 97.7293 2.28063 97.449 2.56087C97.1686 2.84112 97.0284 3.19383 97.0284 3.5997V23.9896C97.0284 24.3858 97.1686 24.7241 97.4441 25.0043C97.7197 25.2797 98.0581 25.4198 98.4545 25.4198C98.8461 25.4198 99.1893 25.2797 99.4648 25.0043C99.7404 24.7289 99.8806 24.3858 99.8806 23.9896V16.5246C99.8806 15.7612 100.035 15.0364 100.34 14.3745C100.649 13.7077 101.065 13.1182 101.582 12.6254C102.1 12.1326 102.709 11.7412 103.39 11.4609C104.754 10.9053 106.392 10.8956 107.611 11.4706C108.22 11.7605 108.747 12.1519 109.177 12.6495C109.607 13.1472 109.945 13.7367 110.182 14.4083C110.419 15.0847 110.54 15.8143 110.54 16.5729V24.0186C110.54 24.4293 110.68 24.7724 110.961 25.0381C111.236 25.299 111.57 25.4343 111.952 25.4343C112.358 25.4343 112.701 25.299 112.972 25.0381C113.242 24.7724 113.383 24.4293 113.383 24.0235V16.5633C113.383 15.4181 113.189 14.3262 112.812 13.3115C112.425 12.2968 111.884 11.403 111.193 10.6492Z" fill="white"/>
<path d="M118.565 3.0827C118.101 3.0827 117.704 3.24215 117.385 3.56104C117.066 3.87994 116.907 4.27614 116.907 4.73999C116.907 5.19417 117.066 5.58554 117.38 5.90444C117.7 6.22817 118.096 6.39244 118.56 6.39244C119.024 6.39244 119.425 6.22817 119.749 5.90444C120.073 5.58071 120.233 5.18934 120.233 4.73516C120.233 4.27131 120.068 3.87511 119.744 3.55621C119.425 3.24215 119.029 3.0827 118.565 3.0827Z" fill="white"/>
<path d="M118.555 8.19952C118.164 8.19952 117.82 8.33964 117.54 8.61505C117.26 8.89046 117.115 9.23835 117.115 9.64905V24.0766C117.115 24.4728 117.26 24.8159 117.54 25.0913C117.82 25.3667 118.164 25.5068 118.555 25.5068C118.937 25.5068 119.271 25.3667 119.546 25.0913C119.822 24.8159 119.962 24.4728 119.962 24.0766V9.64421C119.962 9.23835 119.831 8.89529 119.57 8.61989C119.305 8.33964 118.966 8.19952 118.555 8.19952Z" fill="white"/>
<path d="M139.328 13.5241C138.883 12.466 138.269 11.5334 137.501 10.7507C136.732 9.96794 135.814 9.33981 134.774 8.88563C133.73 8.42662 132.589 8.19952 131.385 8.19952C130.191 8.19952 129.055 8.43145 128.011 8.88563C126.972 9.33981 126.053 9.97277 125.28 10.7603C124.511 11.5479 123.892 12.4804 123.448 13.5289C122.998 14.5823 122.771 15.7322 122.771 16.9353C122.771 18.1288 122.998 19.269 123.452 20.3175C123.902 21.3612 124.521 22.2889 125.289 23.0716C126.058 23.8544 126.977 24.4825 128.021 24.9367C129.065 25.3909 130.201 25.6228 131.395 25.6228C132.637 25.6228 133.803 25.386 134.852 24.9173C135.702 24.5405 136.471 24.038 137.148 23.4292L137.157 24.038C137.157 24.439 137.283 24.7821 137.525 25.0623C137.776 25.3522 138.119 25.502 138.545 25.502C138.951 25.502 139.299 25.357 139.579 25.0768C139.86 24.7966 140 24.4438 140 24.038V16.9353C140 15.7322 139.773 14.5823 139.328 13.5241ZM137.153 16.9353C137.153 17.7229 137.008 18.4815 136.713 19.1917C136.423 19.8972 136.017 20.5253 135.504 21.0616C134.997 21.5931 134.383 22.0183 133.677 22.3227C132.285 22.9315 130.506 22.9363 129.108 22.3227C128.412 22.0183 127.798 21.5931 127.281 21.0616C126.764 20.5301 126.353 19.902 126.058 19.1917C125.763 18.4863 125.613 17.7277 125.613 16.9401C125.613 16.1381 125.763 15.3698 126.058 14.6596C126.353 13.9445 126.769 13.3163 127.281 12.7945C127.798 12.2678 128.412 11.8475 129.108 11.5383C129.805 11.2339 130.568 11.0792 131.381 11.0792C132.202 11.0792 132.976 11.2339 133.677 11.5383C134.378 11.8475 134.997 12.2679 135.504 12.7897C136.017 13.3163 136.423 13.9445 136.713 14.6547C137.008 15.3698 137.153 16.1381 137.153 16.9353Z" fill="white"/>
<path d="M23.6734 7.76466C23.0014 6.2185 22.0878 4.87528 20.942 3.72532C19.7963 2.57537 18.4476 1.667 16.9006 1.00022C15.3536 0.32861 13.71 -0.00477997 11.9745 5.17687e-05C10.2245 0.00488351 8.61469 0.343105 7.15475 1.01472C5.68997 1.68633 4.42823 2.60436 3.36953 3.75915C2.306 4.91393 1.47934 6.26199 0.884726 7.79848C0.290113 9.33498 -0.00477577 10.9729 5.8479e-05 12.7075V12.7317V13.0989L0.00489302 15.737L4.96 10.7748C5.04218 10.6927 5.14854 10.6492 5.25972 10.6492C5.28873 10.6637 5.31774 10.654 5.34674 10.6589C5.42892 10.6734 5.5111 10.712 5.57395 10.7748L10.6257 15.824L16.6154 9.83748H14.0919C13.5311 9.83748 13.1299 9.43161 13.1299 8.87596C13.1299 8.32031 13.536 7.91444 14.0919 7.91444H19.4676C19.7045 7.91444 19.893 8.10771 19.893 8.33964V13.7125C19.893 14.273 19.4869 14.6741 18.931 14.6741C18.3702 14.6741 17.9641 14.2682 17.9641 13.7125V11.2097L10.94 18.2447C10.8578 18.3268 10.7514 18.3703 10.6402 18.3703C10.5291 18.3703 10.4179 18.3268 10.3405 18.2447L9.58154 17.4861C9.56704 17.4716 9.55737 17.462 9.5477 17.4475L5.27906 13.181L0.0145606 18.4476L0.0338988 27.8647C0.0338988 28.5025 0.14992 29.0968 0.381964 29.6428C0.614008 30.1888 0.933068 30.6671 1.34398 31.0778C1.75489 31.4837 2.23348 31.8074 2.77975 32.0442C3.32602 32.2809 3.91097 32.3969 4.53459 32.3969C5.17271 32.3969 5.75282 32.2761 6.27492 32.0393C6.79701 31.8026 7.2466 31.4789 7.62367 31.0682C8.00074 30.6575 8.28596 30.1791 8.49384 29.6331C8.69688 29.0871 8.7984 28.4928 8.7984 27.855L8.91442 24.811C9.89577 25.1831 10.9351 25.3715 12.0325 25.3667C13.768 25.3619 15.4068 25.0285 16.9489 24.3617C18.4959 23.6949 19.8398 22.7914 20.9807 21.6414C22.1216 20.4963 23.0304 19.1531 23.6976 17.6117C24.3647 16.0753 24.6982 14.4276 24.6934 12.6785C24.6837 10.9488 24.3453 9.30599 23.6734 7.76466Z" fill="url(#paint0_linear)"/>
<defs>
<linearGradient id="paint0_linear" x1="0.423703" y1="6.68771" x2="18.1711" y2="24.4444" gradientUnits="userSpaceOnUse">
<stop stop-color="#18D69C"/>
<stop offset="1" stop-color="#A5E729"/>
</linearGradient>
</defs>
</svg>
