<svg width="118" height="154" viewBox="0 0 118 154" fill="none" xmlns="http://www.w3.org/2000/svg">
<path d="M112.916 36.9055C109.739 29.5934 105.418 23.2411 99.9993 17.8027C94.581 12.3644 88.2025 8.0686 80.8867 4.91528C73.5708 1.76196 65.8206 0.18528 57.6132 0.208131C49.3371 0.230981 41.7241 1.83049 34.8197 5.00666C27.8926 8.18283 21.9256 12.5244 16.9188 17.9856C11.8892 23.4467 7.97975 29.822 5.16772 37.0883C2.3557 44.3547 0.961118 52.1008 0.98398 60.304V60.4183V62.1549L1.00684 74.6311L24.4175 51.164C24.8062 50.7755 25.3092 50.5699 25.835 50.5699C25.9722 50.6384 26.1093 50.5927 26.2465 50.6156C26.6351 50.6841 27.0238 50.8669 27.321 51.164L51.2118 75.0424L79.5378 46.7311H67.6039C64.9519 46.7311 63.0543 44.8116 63.0543 42.1838C63.0543 39.5332 64.9747 37.6367 67.6039 37.6367H93.0264C94.1466 37.6367 95.0383 38.5507 95.0383 39.6475V65.0569C95.0383 67.7075 93.1178 69.604 90.4887 69.604C87.8596 69.604 85.9163 67.6846 85.9163 65.0569V53.2434L52.6521 86.4903C52.2634 86.8787 51.7605 87.0844 51.2347 87.0844C50.7088 87.0844 50.183 86.8787 49.8172 86.4903L46.2279 82.9029C46.1593 82.8343 46.1136 82.7885 46.0678 82.72L25.8807 62.5434L1.00684 87.4729L1.09829 132.008C1.09829 135.024 1.64698 137.835 2.74436 140.417C3.84173 142.999 5.35062 145.261 7.29389 147.203C9.23716 149.123 11.5005 150.654 14.0839 151.773C16.6673 152.893 19.4336 153.441 22.3828 153.441C25.4006 153.441 28.144 152.87 30.6131 151.75C33.0822 150.631 35.2084 149.1 36.9916 147.157C38.7749 145.215 40.1237 142.953 41.1068 140.371C42.067 137.789 42.5471 134.978 42.5471 131.962L43.0958 117.566C47.7368 119.326 52.6521 120.217 57.8418 120.194C66.0492 120.171 73.7995 118.595 81.0924 115.441C88.4083 112.288 94.7639 108.015 100.159 102.577C105.555 97.1614 109.853 90.8089 113.008 83.5197C116.163 76.2534 117.74 68.4615 117.717 60.1898C117.694 51.9637 116.094 44.2175 112.916 36.9055Z" fill="url(#paint0_linear)"/>
<defs>
<linearGradient id="paint0_linear" x1="2.95587" y1="31.8229" x2="86.8866" y2="115.797" gradientUnits="userSpaceOnUse">
<stop stop-color="#18D69C"/>
<stop offset="1" stop-color="#A5E729"/>
</linearGradient>
</defs>
</svg>
